<mxfile host="app.diagrams.net" agent="Mozilla/5.0 (Windows NT 10.0; Win64; x64) AppleWebKit/537.36 (KHTML, like Gecko) Chrome/130.0.0.0 Safari/537.36 Edg/130.0.0.0" version="24.8.3">
  <diagram name="Seite-1" id="PDan1kP4xHw6VnlhOT6z">
    <mxGraphModel dx="1426" dy="781" grid="1" gridSize="10" guides="1" tooltips="1" connect="1" arrows="1" fold="1" page="1" pageScale="1" pageWidth="827" pageHeight="1169" math="0" shadow="0">
      <root>
        <mxCell id="0" />
        <mxCell id="1" parent="0" />
        <mxCell id="T3h6hHKUy7XFf8rK5i96-1" value="" style="ellipse;html=1;shape=endState;fillColor=#000000;strokeColor=#ff0000;" vertex="1" parent="1">
          <mxGeometry x="325" y="620" width="30" height="30" as="geometry" />
        </mxCell>
        <mxCell id="T3h6hHKUy7XFf8rK5i96-66" style="edgeStyle=orthogonalEdgeStyle;rounded=0;orthogonalLoop=1;jettySize=auto;html=1;exitX=0.5;exitY=1;exitDx=0;exitDy=0;" edge="1" parent="1" source="T3h6hHKUy7XFf8rK5i96-2" target="T3h6hHKUy7XFf8rK5i96-4">
          <mxGeometry relative="1" as="geometry" />
        </mxCell>
        <mxCell id="T3h6hHKUy7XFf8rK5i96-68" style="edgeStyle=orthogonalEdgeStyle;rounded=0;orthogonalLoop=1;jettySize=auto;html=1;exitX=0.5;exitY=1;exitDx=0;exitDy=0;" edge="1" parent="1" source="T3h6hHKUy7XFf8rK5i96-2" target="T3h6hHKUy7XFf8rK5i96-61">
          <mxGeometry relative="1" as="geometry" />
        </mxCell>
        <mxCell id="T3h6hHKUy7XFf8rK5i96-2" value="" style="ellipse;html=1;shape=startState;fillColor=#000000;strokeColor=#ff0000;" vertex="1" parent="1">
          <mxGeometry x="420" y="20" width="30" height="30" as="geometry" />
        </mxCell>
        <mxCell id="T3h6hHKUy7XFf8rK5i96-30" style="edgeStyle=orthogonalEdgeStyle;rounded=0;orthogonalLoop=1;jettySize=auto;html=1;exitX=0.5;exitY=1;exitDx=0;exitDy=0;entryX=0.5;entryY=0;entryDx=0;entryDy=0;" edge="1" parent="1" source="T3h6hHKUy7XFf8rK5i96-6" target="T3h6hHKUy7XFf8rK5i96-22">
          <mxGeometry relative="1" as="geometry" />
        </mxCell>
        <mxCell id="T3h6hHKUy7XFf8rK5i96-6" value="&lt;font style=&quot;font-size: 14px;&quot;&gt;Bewege Schlange&lt;/font&gt;" style="rounded=1;whiteSpace=wrap;html=1;arcSize=40;fontColor=#000000;fillColor=#ffffc0;strokeColor=#ff0000;" vertex="1" parent="1">
          <mxGeometry x="127" y="200" width="120" height="40" as="geometry" />
        </mxCell>
        <mxCell id="T3h6hHKUy7XFf8rK5i96-31" style="edgeStyle=orthogonalEdgeStyle;rounded=0;orthogonalLoop=1;jettySize=auto;html=1;exitX=1;exitY=0.5;exitDx=0;exitDy=0;entryX=0;entryY=0.5;entryDx=0;entryDy=0;" edge="1" parent="1" source="T3h6hHKUy7XFf8rK5i96-22" target="T3h6hHKUy7XFf8rK5i96-26">
          <mxGeometry relative="1" as="geometry" />
        </mxCell>
        <mxCell id="T3h6hHKUy7XFf8rK5i96-32" value="Ja" style="edgeLabel;html=1;align=center;verticalAlign=middle;resizable=0;points=[];fontSize=14;" vertex="1" connectable="0" parent="T3h6hHKUy7XFf8rK5i96-31">
          <mxGeometry x="-0.1143" relative="1" as="geometry">
            <mxPoint as="offset" />
          </mxGeometry>
        </mxCell>
        <mxCell id="T3h6hHKUy7XFf8rK5i96-34" style="edgeStyle=orthogonalEdgeStyle;rounded=0;orthogonalLoop=1;jettySize=auto;html=1;exitX=0.5;exitY=1;exitDx=0;exitDy=0;entryX=0.5;entryY=0;entryDx=0;entryDy=0;" edge="1" parent="1" source="T3h6hHKUy7XFf8rK5i96-22" target="T3h6hHKUy7XFf8rK5i96-33">
          <mxGeometry relative="1" as="geometry" />
        </mxCell>
        <mxCell id="T3h6hHKUy7XFf8rK5i96-35" value="Nein" style="edgeLabel;html=1;align=center;verticalAlign=middle;resizable=0;points=[];fontSize=14;" vertex="1" connectable="0" parent="T3h6hHKUy7XFf8rK5i96-34">
          <mxGeometry x="-0.0154" y="-1" relative="1" as="geometry">
            <mxPoint as="offset" />
          </mxGeometry>
        </mxCell>
        <mxCell id="T3h6hHKUy7XFf8rK5i96-22" value="" style="rhombus;whiteSpace=wrap;html=1;fontColor=#000000;fillColor=#ffffc0;strokeColor=#ff0000;" vertex="1" parent="1">
          <mxGeometry x="162" y="270" width="48" height="40" as="geometry" />
        </mxCell>
        <mxCell id="T3h6hHKUy7XFf8rK5i96-25" value="&lt;font style=&quot;font-size: 14px;&quot;&gt;Kollision mit Frucht?&lt;/font&gt;" style="text;html=1;align=center;verticalAlign=middle;whiteSpace=wrap;rounded=0;" vertex="1" parent="1">
          <mxGeometry x="77.5" y="275" width="73" height="35" as="geometry" />
        </mxCell>
        <mxCell id="T3h6hHKUy7XFf8rK5i96-28" style="edgeStyle=orthogonalEdgeStyle;rounded=0;orthogonalLoop=1;jettySize=auto;html=1;exitX=0.5;exitY=1;exitDx=0;exitDy=0;entryX=0.5;entryY=0;entryDx=0;entryDy=0;" edge="1" parent="1" source="T3h6hHKUy7XFf8rK5i96-26" target="T3h6hHKUy7XFf8rK5i96-27">
          <mxGeometry relative="1" as="geometry" />
        </mxCell>
        <mxCell id="T3h6hHKUy7XFf8rK5i96-26" value="&lt;font style=&quot;font-size: 14px;&quot;&gt;Schlange wächst&lt;/font&gt;" style="rounded=1;whiteSpace=wrap;html=1;arcSize=40;fontColor=#000000;fillColor=#ffffc0;strokeColor=#ff0000;" vertex="1" parent="1">
          <mxGeometry x="280" y="271.25" width="120" height="37.5" as="geometry" />
        </mxCell>
        <mxCell id="T3h6hHKUy7XFf8rK5i96-4" value="" style="shape=line;html=1;strokeWidth=6;strokeColor=#ff0000;" vertex="1" parent="1">
          <mxGeometry x="100" y="130" width="170" height="10" as="geometry" />
        </mxCell>
        <mxCell id="T3h6hHKUy7XFf8rK5i96-36" style="rounded=0;orthogonalLoop=1;jettySize=auto;html=1;exitX=0.5;exitY=1;exitDx=0;exitDy=0;entryX=0.5;entryY=0;entryDx=0;entryDy=0;edgeStyle=orthogonalEdgeStyle;" edge="1" parent="1" source="T3h6hHKUy7XFf8rK5i96-27" target="T3h6hHKUy7XFf8rK5i96-33">
          <mxGeometry relative="1" as="geometry">
            <Array as="points">
              <mxPoint x="340" y="420" />
              <mxPoint x="186" y="420" />
            </Array>
          </mxGeometry>
        </mxCell>
        <mxCell id="T3h6hHKUy7XFf8rK5i96-27" value="&lt;font style=&quot;font-size: 14px;&quot;&gt;Sende Schlange wächst an Client&lt;/font&gt;" style="rounded=1;whiteSpace=wrap;html=1;arcSize=40;fontColor=#000000;fillColor=#ffffc0;strokeColor=#ff0000;" vertex="1" parent="1">
          <mxGeometry x="280" y="360" width="120" height="50" as="geometry" />
        </mxCell>
        <mxCell id="T3h6hHKUy7XFf8rK5i96-39" style="edgeStyle=orthogonalEdgeStyle;rounded=0;orthogonalLoop=1;jettySize=auto;html=1;exitX=1;exitY=0.5;exitDx=0;exitDy=0;entryX=0;entryY=0.5;entryDx=0;entryDy=0;" edge="1" parent="1" source="T3h6hHKUy7XFf8rK5i96-33" target="T3h6hHKUy7XFf8rK5i96-38">
          <mxGeometry relative="1" as="geometry" />
        </mxCell>
        <mxCell id="T3h6hHKUy7XFf8rK5i96-40" value="&lt;font style=&quot;font-size: 14px;&quot;&gt;Ja&lt;/font&gt;" style="edgeLabel;html=1;align=center;verticalAlign=middle;resizable=0;points=[];" vertex="1" connectable="0" parent="T3h6hHKUy7XFf8rK5i96-39">
          <mxGeometry x="-0.0571" y="-1" relative="1" as="geometry">
            <mxPoint as="offset" />
          </mxGeometry>
        </mxCell>
        <mxCell id="T3h6hHKUy7XFf8rK5i96-44" style="edgeStyle=orthogonalEdgeStyle;rounded=0;orthogonalLoop=1;jettySize=auto;html=1;exitX=0.5;exitY=1;exitDx=0;exitDy=0;" edge="1" parent="1" source="T3h6hHKUy7XFf8rK5i96-33">
          <mxGeometry relative="1" as="geometry">
            <mxPoint x="186" y="720" as="targetPoint" />
          </mxGeometry>
        </mxCell>
        <mxCell id="T3h6hHKUy7XFf8rK5i96-45" value="&lt;font style=&quot;font-size: 14px;&quot;&gt;Nein&lt;/font&gt;" style="edgeLabel;html=1;align=center;verticalAlign=middle;resizable=0;points=[];" vertex="1" connectable="0" parent="T3h6hHKUy7XFf8rK5i96-44">
          <mxGeometry x="-0.1102" y="1" relative="1" as="geometry">
            <mxPoint as="offset" />
          </mxGeometry>
        </mxCell>
        <mxCell id="T3h6hHKUy7XFf8rK5i96-33" value="" style="rhombus;whiteSpace=wrap;html=1;fontColor=#000000;fillColor=#ffffc0;strokeColor=#ff0000;" vertex="1" parent="1">
          <mxGeometry x="162" y="440" width="48" height="40" as="geometry" />
        </mxCell>
        <mxCell id="T3h6hHKUy7XFf8rK5i96-37" value="&lt;font style=&quot;font-size: 14px;&quot;&gt;Kollision mit Hindernis oder Körper?&lt;/font&gt;" style="text;html=1;align=center;verticalAlign=middle;whiteSpace=wrap;rounded=0;" vertex="1" parent="1">
          <mxGeometry x="48.25" y="440" width="110.5" height="35" as="geometry" />
        </mxCell>
        <mxCell id="T3h6hHKUy7XFf8rK5i96-42" style="edgeStyle=orthogonalEdgeStyle;rounded=0;orthogonalLoop=1;jettySize=auto;html=1;exitX=0.5;exitY=1;exitDx=0;exitDy=0;entryX=0.5;entryY=0;entryDx=0;entryDy=0;" edge="1" parent="1" source="T3h6hHKUy7XFf8rK5i96-38" target="T3h6hHKUy7XFf8rK5i96-41">
          <mxGeometry relative="1" as="geometry" />
        </mxCell>
        <mxCell id="T3h6hHKUy7XFf8rK5i96-38" value="&lt;font style=&quot;font-size: 14px;&quot;&gt;Schlange stirbt&lt;/font&gt;" style="rounded=1;whiteSpace=wrap;html=1;arcSize=40;fontColor=#000000;fillColor=#ffffc0;strokeColor=#ff0000;" vertex="1" parent="1">
          <mxGeometry x="280" y="441.25" width="120" height="37.5" as="geometry" />
        </mxCell>
        <mxCell id="T3h6hHKUy7XFf8rK5i96-43" style="edgeStyle=orthogonalEdgeStyle;rounded=0;orthogonalLoop=1;jettySize=auto;html=1;exitX=0.5;exitY=1;exitDx=0;exitDy=0;entryX=0.5;entryY=0;entryDx=0;entryDy=0;" edge="1" parent="1" source="T3h6hHKUy7XFf8rK5i96-41" target="T3h6hHKUy7XFf8rK5i96-1">
          <mxGeometry relative="1" as="geometry" />
        </mxCell>
        <mxCell id="T3h6hHKUy7XFf8rK5i96-41" value="&lt;font style=&quot;font-size: 14px;&quot;&gt;Sende Schlange stribt an Client&lt;/font&gt;" style="rounded=1;whiteSpace=wrap;html=1;arcSize=40;fontColor=#000000;fillColor=#ffffc0;strokeColor=#ff0000;" vertex="1" parent="1">
          <mxGeometry x="280" y="535" width="120" height="50" as="geometry" />
        </mxCell>
        <mxCell id="T3h6hHKUy7XFf8rK5i96-52" style="edgeStyle=orthogonalEdgeStyle;rounded=0;orthogonalLoop=1;jettySize=auto;html=1;exitX=0.5;exitY=1;exitDx=0;exitDy=0;entryX=0.5;entryY=0;entryDx=0;entryDy=0;" edge="1" parent="1" source="T3h6hHKUy7XFf8rK5i96-46" target="T3h6hHKUy7XFf8rK5i96-47">
          <mxGeometry relative="1" as="geometry" />
        </mxCell>
        <mxCell id="T3h6hHKUy7XFf8rK5i96-46" value="&lt;font style=&quot;font-size: 14px;&quot;&gt;Prüfe ob Client Update benötigt&lt;/font&gt;" style="rounded=1;whiteSpace=wrap;html=1;arcSize=40;fontColor=#000000;fillColor=#ffffc0;strokeColor=#ff0000;" vertex="1" parent="1">
          <mxGeometry x="580" y="200" width="120" height="40" as="geometry" />
        </mxCell>
        <mxCell id="T3h6hHKUy7XFf8rK5i96-50" style="edgeStyle=orthogonalEdgeStyle;rounded=0;orthogonalLoop=1;jettySize=auto;html=1;exitX=0;exitY=0.5;exitDx=0;exitDy=0;entryX=0.5;entryY=0;entryDx=0;entryDy=0;" edge="1" parent="1" source="T3h6hHKUy7XFf8rK5i96-47" target="T3h6hHKUy7XFf8rK5i96-49">
          <mxGeometry relative="1" as="geometry" />
        </mxCell>
        <mxCell id="T3h6hHKUy7XFf8rK5i96-51" value="&lt;font style=&quot;font-size: 14px;&quot;&gt;Ja&lt;/font&gt;" style="edgeLabel;html=1;align=center;verticalAlign=middle;resizable=0;points=[];" vertex="1" connectable="0" parent="T3h6hHKUy7XFf8rK5i96-50">
          <mxGeometry x="-0.4006" y="1" relative="1" as="geometry">
            <mxPoint as="offset" />
          </mxGeometry>
        </mxCell>
        <mxCell id="T3h6hHKUy7XFf8rK5i96-53" style="edgeStyle=orthogonalEdgeStyle;rounded=0;orthogonalLoop=1;jettySize=auto;html=1;exitX=0.5;exitY=1;exitDx=0;exitDy=0;" edge="1" parent="1" source="T3h6hHKUy7XFf8rK5i96-47">
          <mxGeometry relative="1" as="geometry">
            <mxPoint x="640" y="720" as="targetPoint" />
          </mxGeometry>
        </mxCell>
        <mxCell id="T3h6hHKUy7XFf8rK5i96-54" value="&lt;font style=&quot;font-size: 14px;&quot;&gt;Nein&lt;/font&gt;" style="edgeLabel;html=1;align=center;verticalAlign=middle;resizable=0;points=[];" vertex="1" connectable="0" parent="T3h6hHKUy7XFf8rK5i96-53">
          <mxGeometry x="0.0015" y="2" relative="1" as="geometry">
            <mxPoint x="-1" y="-1" as="offset" />
          </mxGeometry>
        </mxCell>
        <mxCell id="T3h6hHKUy7XFf8rK5i96-47" value="" style="rhombus;whiteSpace=wrap;html=1;fontColor=#000000;fillColor=#ffffc0;strokeColor=#ff0000;" vertex="1" parent="1">
          <mxGeometry x="616" y="272.5" width="48" height="40" as="geometry" />
        </mxCell>
        <mxCell id="T3h6hHKUy7XFf8rK5i96-48" value="&lt;font style=&quot;font-size: 14px;&quot;&gt;Update benötigt?&lt;/font&gt;" style="text;html=1;align=center;verticalAlign=middle;whiteSpace=wrap;rounded=0;" vertex="1" parent="1">
          <mxGeometry x="680" y="273.75" width="73" height="35" as="geometry" />
        </mxCell>
        <mxCell id="T3h6hHKUy7XFf8rK5i96-58" style="rounded=0;orthogonalLoop=1;jettySize=auto;html=1;exitX=0.5;exitY=1;exitDx=0;exitDy=0;entryX=0.501;entryY=0.5;entryDx=0;entryDy=0;entryPerimeter=0;" edge="1" parent="1">
          <mxGeometry relative="1" as="geometry">
            <mxPoint x="186" y="138" as="sourcePoint" />
            <mxPoint x="186.5" y="200" as="targetPoint" />
          </mxGeometry>
        </mxCell>
        <mxCell id="T3h6hHKUy7XFf8rK5i96-63" style="edgeStyle=orthogonalEdgeStyle;rounded=0;orthogonalLoop=1;jettySize=auto;html=1;exitX=0.5;exitY=1;exitDx=0;exitDy=0;" edge="1" parent="1" source="T3h6hHKUy7XFf8rK5i96-49">
          <mxGeometry relative="1" as="geometry">
            <mxPoint x="520" y="720" as="targetPoint" />
          </mxGeometry>
        </mxCell>
        <mxCell id="T3h6hHKUy7XFf8rK5i96-49" value="&lt;font style=&quot;font-size: 14px;&quot;&gt;Sende Update an Client&lt;/font&gt;" style="rounded=1;whiteSpace=wrap;html=1;arcSize=40;fontColor=#000000;fillColor=#ffffc0;strokeColor=#ff0000;" vertex="1" parent="1">
          <mxGeometry x="460" y="360" width="120" height="40" as="geometry" />
        </mxCell>
        <mxCell id="T3h6hHKUy7XFf8rK5i96-59" style="rounded=0;orthogonalLoop=1;jettySize=auto;html=1;exitX=0.5;exitY=1;exitDx=0;exitDy=0;entryX=0.501;entryY=0.5;entryDx=0;entryDy=0;entryPerimeter=0;" edge="1" parent="1">
          <mxGeometry relative="1" as="geometry">
            <mxPoint x="640" y="137" as="sourcePoint" />
            <mxPoint x="641" y="202" as="targetPoint" />
          </mxGeometry>
        </mxCell>
        <mxCell id="T3h6hHKUy7XFf8rK5i96-60" value="" style="shape=line;html=1;strokeWidth=6;strokeColor=#ff0000;" vertex="1" parent="1">
          <mxGeometry x="100" y="720" width="170" height="10" as="geometry" />
        </mxCell>
        <mxCell id="T3h6hHKUy7XFf8rK5i96-61" value="" style="shape=line;html=1;strokeWidth=6;strokeColor=#ff0000;" vertex="1" parent="1">
          <mxGeometry x="555" y="130" width="170" height="10" as="geometry" />
        </mxCell>
        <mxCell id="T3h6hHKUy7XFf8rK5i96-62" value="" style="shape=line;html=1;strokeWidth=6;strokeColor=#ff0000;" vertex="1" parent="1">
          <mxGeometry x="494" y="720" width="170" height="10" as="geometry" />
        </mxCell>
        <mxCell id="T3h6hHKUy7XFf8rK5i96-64" style="edgeStyle=orthogonalEdgeStyle;rounded=0;orthogonalLoop=1;jettySize=auto;html=1;exitX=0.5;exitY=1;exitDx=0;exitDy=0;" edge="1" parent="1">
          <mxGeometry relative="1" as="geometry">
            <mxPoint x="640" y="90" as="targetPoint" />
            <mxPoint x="580" y="730" as="sourcePoint" />
            <Array as="points">
              <mxPoint x="580" y="760" />
              <mxPoint x="761" y="760" />
            </Array>
          </mxGeometry>
        </mxCell>
        <mxCell id="T3h6hHKUy7XFf8rK5i96-65" style="edgeStyle=orthogonalEdgeStyle;rounded=0;orthogonalLoop=1;jettySize=auto;html=1;exitX=0.5;exitY=1;exitDx=0;exitDy=0;" edge="1" parent="1">
          <mxGeometry relative="1" as="geometry">
            <mxPoint x="187" y="90" as="targetPoint" />
            <mxPoint x="186.5" y="730" as="sourcePoint" />
            <Array as="points">
              <mxPoint x="187" y="760" />
              <mxPoint x="41" y="760" />
            </Array>
          </mxGeometry>
        </mxCell>
      </root>
    </mxGraphModel>
  </diagram>
</mxfile>
